<svg width="150" height="150" viewBox="0 0 150 150" fill="none" xmlns="http://www.w3.org/2000/svg">
<path fill-rule="evenodd" clip-rule="evenodd" d="M75 145.313C111.244 145.313 140.625 115.931 140.625 79.6875C140.625 43.4438 111.244 14.0625 75 14.0625C38.7563 14.0625 9.375 43.4438 9.375 79.6875C9.375 91.4572 12.4734 102.503 17.8991 112.055L9.375 145.313L43.6634 137.362C52.9752 142.432 63.6512 145.313 75 145.313ZM75 135.216C105.668 135.216 130.529 110.355 130.529 79.6875C130.529 49.0198 105.668 24.1587 75 24.1587C44.3323 24.1587 19.4712 49.0198 19.4712 79.6875C19.4712 91.5284 23.1774 102.504 29.493 111.517L24.5192 130.168L43.4997 125.423C52.4501 131.6 63.3027 135.216 75 135.216Z" fill="#BFC8D0"/>
<path d="M131.25 75C131.25 106.066 106.066 131.25 75 131.25C63.1508 131.25 52.1573 127.586 43.0906 121.33L23.8636 126.136L28.902 107.243C22.5043 98.1125 18.75 86.9947 18.75 75C18.75 43.934 43.934 18.75 75 18.75C106.066 18.75 131.25 43.934 131.25 75Z" fill="url(#paint0_linear)"/>
<path fill-rule="evenodd" clip-rule="evenodd" d="M75 140.625C111.244 140.625 140.625 111.244 140.625 75C140.625 38.7563 111.244 9.375 75 9.375C38.7563 9.375 9.375 38.7563 9.375 75C9.375 86.7697 12.4734 97.8158 17.8991 107.367L9.375 140.625L43.6634 132.674C52.9752 137.744 63.6512 140.625 75 140.625ZM75 130.529C105.668 130.529 130.529 105.668 130.529 75C130.529 44.3323 105.668 19.4712 75 19.4712C44.3323 19.4712 19.4712 44.3323 19.4712 75C19.4712 86.8409 23.1774 97.8162 29.493 106.829L24.5192 125.481L43.4997 120.736C52.4501 126.912 63.3027 130.529 75 130.529Z" fill="white"/>
<path d="M58.5939 44.5313C57.0336 41.3973 54.64 41.6748 52.2219 41.6748C47.9004 41.6748 41.1621 46.8511 41.1621 56.4847C41.1621 64.38 44.6412 73.0226 56.3645 85.9511C67.6783 98.4281 82.544 104.883 94.8853 104.663C107.227 104.443 109.766 93.823 109.766 90.2365C109.766 88.6468 108.779 87.8537 108.1 87.6382C103.894 85.6198 96.1375 81.8591 94.3726 81.1525C92.6077 80.4459 91.6862 81.4016 91.1133 81.9215C89.5128 83.4467 86.3402 87.9417 85.254 88.9528C84.1677 89.9638 82.5482 89.4521 81.8742 89.0699C79.3942 88.0747 72.67 85.0837 67.31 79.8879C60.6812 73.462 60.2922 71.2512 59.0433 69.2833C58.0442 67.7089 58.7773 66.743 59.1432 66.3209C60.5714 64.6729 62.5435 62.1287 63.4278 60.8643C64.3122 59.6 63.6101 57.6804 63.1889 56.4848C61.3771 51.3428 59.8421 47.0385 58.5939 44.5313Z" fill="white"/>
<defs>
<linearGradient id="paint0_linear" x1="124.219" y1="32.8125" x2="18.75" y2="131.25" gradientUnits="userSpaceOnUse">
<stop stop-color="#5BD066"/>
<stop offset="1" stop-color="#27B43E"/>
</linearGradient>
</defs>
</svg>
